# xmcd CD database file
#
# Track frame offsets:
#	182
#	11690
#	27777
#	40060
#	67945
#	81455
#	96075
#	110722
#	126127
#	141505
#	151780
#	167510
#
# Disc length: 2409 seconds
#
# Revision: 4
# Processed by: cddbd v1.5.2PL0 Copyright (c) Steve Scherf et al.
# Submitted via: CDex 1.82
#
DISCID=9609670c
DTITLE=Sem tam - Na ostri noze
DYEAR=1990
DGENRE=Bluegrass
TTITLE0=Starodavna
TTITLE1=Tak uz musim jit
TTITLE2=Na ostri noze
TTITLE3=Jedno oko navic
TTITLE4=Navrat
TTITLE5=Stribrna kridla orli
TTITLE6=Ktery z tech psu
TTITLE7=Jednou dlouho spat
TTITLE8=Zas vracim se
TTITLE9=Pelynek
TTITLE10=Cekani na zazrak
TTITLE11=Jdou dal
EXTD=YEAR: 1990
EXTT0=
EXTT1=
EXTT2=
EXTT3=
EXTT4=
EXTT5=
EXTT6=
EXTT7=
EXTT8=
EXTT9=
EXTT10=
EXTT11=
PLAYORDER=
